<svg id="Capa_1" enable-background="new 0 0 511.993 511.993" height="512" viewBox="0 0 511.993 511.993" width="512" xmlns="http://www.w3.org/2000/svg"><g><g><path clip-rule="evenodd" d="m208.25 186.622-127.109 158.921 25.8 52.372 52.371 25.801 158.886-127.142-45.121-64.799z" fill="#9fd4fe" fill-rule="evenodd"/></g><g><path clip-rule="evenodd" d="m208.25 186.622 109.948 109.952 32.961-26.364-44.973-71.545-71.573-45.004z" fill="#eff6ff" fill-rule="evenodd"/></g><g><path clip-rule="evenodd" d="m351.159 270.21c10.001 10.001 18.907 14.232 29.558 7.308l71.188-46.247-71.395-94.062-106.96-84.268-46.246 71.161c-6.924 10.681-2.663 19.558 7.308 29.559z" fill="#7e707d" fill-rule="evenodd"/></g><g><path clip-rule="evenodd" d="m302.813 26.962 64.324 101.341 110.718 73.705c12.101-19.203 18.581-40.951 19.38-62.846.118-3.196.118-6.391 0-9.587-1.154-30.861-13.522-61.367-37.074-84.919-42.695-42.696-108.232-48.614-157.348-17.694z" fill="#7e707d" fill-rule="evenodd"/></g><g><path clip-rule="evenodd" d="m273.55 52.941 178.355 178.331 1.331 1.361c7.604 7.604 20.031 7.604 27.635 0s7.604-20.031 0-27.606l-3.018-3.018-175.04-175.047-2.988-2.988c-7.604-7.604-20.031-7.604-27.635 0-7.574 7.575-7.574 20.002 0 27.606z" fill="#eff6ff" fill-rule="evenodd"/></g><g><path clip-rule="evenodd" d="m200.824 271.039-25.593 25.594 32.99 32.962 25.593-25.595c9.054-9.054 9.054-23.908 0-32.962-9.084-9.083-23.907-9.083-32.99.001z" fill="#fe8d94" fill-rule="evenodd"/></g><g><path clip-rule="evenodd" d="m175.23 296.633-25.593 25.594c-9.054 9.054-9.054 23.908 0 32.962 9.083 9.084 23.907 9.084 32.961 0l25.623-25.594z" fill="#fe8d94" fill-rule="evenodd"/></g><g><path clip-rule="evenodd" d="m64.512 366.314c-17.989 22.487-20.356 53.674 0 74.031s51.542 17.99 73.999 0l20.8-16.629-78.171-78.173z" fill="#eff6ff" fill-rule="evenodd"/></g><g><path clip-rule="evenodd" d="m331.306 250.356-32.961 26.364 19.853 19.854 32.961-26.364z" fill="#d9eeff" fill-rule="evenodd"/></g><g><path clip-rule="evenodd" d="m298.345 276.72-158.887 127.142 19.854 19.854 158.886-127.142z" fill="#85beef" fill-rule="evenodd"/></g><g><path clip-rule="evenodd" d="m139.458 403.862-20.8 16.629c-18.611 14.883-43.198 19.085-62.667 8.492 2.189 4.054 5 7.871 8.521 11.362 20.356 20.357 51.542 17.99 73.999 0l20.8-16.629z" fill="#d9eeff" fill-rule="evenodd"/></g><g><path clip-rule="evenodd" d="m461.019 185.143c7.574 7.604 7.574 20.031 0 27.636-7.574 7.575-19.972 7.604-27.576.059l18.463 18.434 1.331 1.361c7.604 7.604 20.031 7.604 27.635 0s7.604-20.031 0-27.606l-3.018-3.018z" fill="#d9eeff" fill-rule="evenodd"/></g><g><path clip-rule="evenodd" d="m477.381 119.308c-.828 21.896-7.279 43.614-19.38 62.846l3.018 2.988 16.835 16.866c12.101-19.203 18.581-40.951 19.38-62.846.118-3.196.118-6.391 0-9.587-1.154-30.861-13.522-61.367-37.074-84.919-3.343-3.344-6.835-6.48-10.474-9.38 17.486 21.777 26.718 47.963 27.694 74.445.119 3.196.119 6.392.001 9.587z" fill="#6a5c6b" fill-rule="evenodd"/></g><g><path clip-rule="evenodd" d="m194.817 316.221 13.403 13.374 25.594-25.595c9.054-9.054 9.054-23.908 0-32.962-2.397-2.397-5.148-4.142-8.107-5.267 3.166 8.314 1.42 18.167-5.267 24.854z" fill="#ff6d75" fill-rule="evenodd"/></g><g><path clip-rule="evenodd" d="m149.637 355.189c9.083 9.084 23.907 9.084 32.961 0l25.623-25.594-13.403-13.374-25.593 25.594c-6.687 6.687-16.51 8.462-24.854 5.267 1.123 2.958 2.899 5.74 5.266 8.107z" fill="#ff6d75" fill-rule="evenodd"/></g><g><path clip-rule="evenodd" d="m432.023 211.418-71.159 46.247c-5.74 3.728-10.977 4.202-16.125 2.308-4.438-1.627-8.817-5-13.433-9.616l19.853 19.854c10.001 10.001 18.907 14.232 29.558 7.308l71.188-46.247-18.463-18.434z" fill="#6a5c6b" fill-rule="evenodd"/></g><g><path d="m195.52 265.736-25.596 25.596-25.591 25.592c-12.011 12.012-12.011 31.557 0 43.568 5.811 5.811 13.549 9.01 21.794 9.009h.026c8.24-.007 15.966-3.209 21.746-9.008l25.47-25.457c.051-.049.106-.091.157-.142.049-.049.091-.103.138-.153l25.453-25.439c5.795-5.795 8.987-13.532 8.987-21.784s-3.192-15.988-8.987-21.784c-5.81-5.81-13.551-9.01-21.799-9.01-8.247.002-15.988 3.202-21.798 9.012zm-18.235 84.158c-2.958 2.967-6.916 4.604-11.144 4.607-.005 0-.009 0-.014 0-4.238 0-8.211-1.639-11.188-4.616-6.163-6.164-6.163-16.192 0-22.355l20.293-20.293 22.37 22.351zm51.225-73.552c6.163 6.163 6.163 16.192.001 22.354l-20.3 20.289-22.373-22.354 20.288-20.288c2.977-2.977 6.952-4.616 11.192-4.616 4.241-.001 8.216 1.638 11.192 4.615z"/><path d="m504.083 120.134c-3.227-30.415-16.941-59.103-38.618-80.781-21.675-21.675-50.362-35.386-80.78-38.608-27.99-2.967-56.427 2.993-80.748 16.811-4.939-4.384-11.243-6.785-17.93-6.785-7.235 0-14.026 2.806-19.121 7.9-9.5 9.501-10.418 24.409-2.746 34.987l-43.129 66.365c-9.395 14.494-2.444 26.7 3.701 34.009l-166.056 207.597c-17.76 22.2-20.671 50.173-8.847 71.532l-30.705 31.987c-14.642 15.221-12.692 27.212-10.227 33.005 3.523 8.278 12.279 13.84 21.787 13.84h327.833c4.143 0 7.5-3.358 7.5-7.5s-3.357-7.5-7.5-7.5h-327.833c-2.971 0-6.667-1.619-7.984-4.714-1.728-4.058.91-10.156 7.241-16.737l28.993-30.204c.101.102.194.209.296.311 11.011 11.012 25.455 16.525 40.517 16.525 14.789 0 30.173-5.319 43.471-15.972l92.699-74.179c3.234-2.588 3.758-7.308 1.17-10.542s-7.309-3.757-10.542-1.17l-66.665 53.346-68.676-68.678 117.688-147.129 98.104 98.107-48.554 38.848c-3.234 2.588-3.758 7.308-1.171 10.542 2.588 3.234 7.308 3.758 10.542 1.171l82.992-66.401c4.725 3.984 11.498 8.308 19.628 8.308 4.434 0 9.27-1.287 14.392-4.616l66.363-43.112c4.718 3.43 10.302 5.148 15.888 5.148 6.925 0 13.85-2.636 19.122-7.908 5.101-5.101 7.906-11.9 7.898-19.144-.006-6.69-2.417-12.99-6.81-17.911 13.825-24.318 19.785-52.757 16.817-80.748zm-356.008 302.952-14.253 11.405c-21.106 16.906-47.426 17.132-64.007.55-16.577-16.578-16.35-42.913.554-64.042l11.386-14.235zm170.684-136.558-100.461-100.464 16.937-21.174 104.695 104.699zm57.872-15.298c-4.593 2.985-9.277 4.567-20.168-6.323l-116.539-116.542c-10.877-10.91-9.3-15.596-6.331-20.177l41.201-63.397 165.243 165.247zm26.01-133.653 72.938 72.763c2.251 2.243 3.492 5.25 3.495 8.467.004 3.231-1.241 6.258-3.506 8.522-2.261 2.261-5.285 3.506-8.515 3.506-3.229 0-6.253-1.245-8.514-3.506l-181.036-181.042c-4.683-4.702-4.688-12.333-.011-17.01 2.262-2.261 5.285-3.507 8.515-3.507s6.253 1.245 8.514 3.506l82.64 82.641c2.929 2.929 7.677 2.93 10.607 0 2.929-2.929 2.929-7.678 0-10.606l-72.729-72.73c46.108-24.261 102.385-16.056 139.818 21.378 37.456 37.456 45.657 93.743 21.373 139.842l-62.995-62.843c-2.932-2.925-7.681-2.92-10.606.013-2.926 2.933-2.92 7.681.012 10.606z"/></g></g></svg>